<svg xmlns="http://www.w3.org/2000/svg" width="290" height="160.511" viewBox="0 0 290 160.511">
  <g id="Group_1398" data-name="Group 1398" transform="translate(-228.709 -125.713)">
    <path id="Path_1358" data-name="Path 1358" d="M636.341,166.667a4.617,4.617,0,1,1,4.617-4.617A4.623,4.623,0,0,1,636.341,166.667Zm-8.172-6.512H604.922a8.371,8.371,0,0,0-16.259-.266,1.864,1.864,0,0,1-.595-.36,1.588,1.588,0,0,1-.431-1.27c0-7.563,2.982-11.245,9.115-11.245h8.709a8.542,8.542,0,0,1,7.135,5c.575,1.958,2.949,5.414,8.186,5.414h2.249c2.5,0,6.927-1.073,7.682-5.234a5.46,5.46,0,0,1,.481-1.58c0-.008.005-.014.008-.022a2.726,2.726,0,0,1,2.523-1.685h1.543a4.368,4.368,0,0,1,2.764.777.892.892,0,0,1,.271.722V153.9a8.278,8.278,0,0,0-10.136,6.252Zm-31.419,6.512a4.617,4.617,0,1,1,4.617-4.617A4.623,4.623,0,0,1,596.75,166.667Zm1.3-31.983c-.008-.861.227-3.35,1.4-4.531a2.214,2.214,0,0,1,1.685-.653l18.156,0c.23.011,5.663.3,7.539,5.181,1.555,4.039,3.477,8.313,4.662,10.861a6.047,6.047,0,0,0-2.432,1.6l-3.862-3.433,1.087-1.336a1.9,1.9,0,0,0-2.946-2.384l-4.736,5.84a1.893,1.893,0,0,0,.279,2.661,1.9,1.9,0,0,0,2.667-.277l1.262-1.557,4.382,3.9a7.683,7.683,0,0,0-.218,1.093c-.351,1.914-3.909,2-3.939,2h-2.249c-3.657,0-4.484-2.467-4.556-2.716a1.914,1.914,0,0,0-.083-.252,11.84,11.84,0,0,0-7.984-6.985l-2.313-4.974a1.894,1.894,0,1,0-3.433,1.6l1.35,2.91h-5.715Zm44.042,15.729a4.679,4.679,0,0,0-1.411-3.428,8.106,8.106,0,0,0-5.2-1.856c-1.01-2.146-3.342-7.206-5.115-11.812-2.786-7.242-10.6-7.593-11-7.6H601.132a6,6,0,0,0-4.39,1.787c-2.484,2.523-2.487,6.764-2.482,7.209v8.714c-4.686.714-10.413,3.829-10.413,14.838a5.34,5.34,0,0,0,1.613,4.017,6.176,6.176,0,0,0,3.071,1.5,8.391,8.391,0,0,0,16.392.161h23.244a8.393,8.393,0,1,0,13.921-7.986v-5.544Z" transform="translate(-234.008)" fill="#fff"/>
    <text id="Beepz" transform="translate(228.709 259.224)" fill="#fff" font-size="109" font-family="SegoeUI, Segoe UI"><tspan x="0" y="0">Beepz</tspan></text>
  </g>
</svg>
